<?xml version="1.0" encoding="iso-8859-1"?>
<!-- Generator: Adobe Illustrator 19.0.0, SVG Export Plug-In . SVG Version: 6.00 Build 0)  -->
<svg version="1.1" id="Layer_1" xmlns="http://www.w3.org/2000/svg" xmlns:xlink="http://www.w3.org/1999/xlink" x="0px" y="0px"
	 viewBox="0 0 511.999 511.999" style="enable-background:new 0 0 511.999 511.999;" xml:space="preserve">
<g>
	<rect x="223.975" y="416.319" style="fill:#1D1D1B;" width="72.058" height="15.624"/>
	<rect x="223.975" y="392.3" style="fill:#1D1D1B;" width="72.058" height="15.624"/>
	<rect x="223.975" y="368.28" style="fill:#1D1D1B;" width="32.024" height="15.624"/>
	<rect x="223.975" y="264.203" style="fill:#1D1D1B;" width="16.013" height="15.624"/>
	<rect x="247.995" y="264.203" style="fill:#1D1D1B;" width="16.013" height="15.624"/>
	<rect x="272.014" y="264.203" style="fill:#1D1D1B;" width="16.013" height="15.624"/>
	<rect x="296.034" y="264.203" style="fill:#1D1D1B;" width="16.012" height="15.624"/>
	<path style="fill:#1D1D1B;" d="M288.024,88.067c-52.868,0-95.879,43.011-95.879,95.879v216.357h-16.4v-16.206
		c0-14.856-10.233-27.365-24.018-30.858V71.86c0-17.766,14.453-32.219,32.219-32.219h64.048V24.017h-64.048
		c-26.381,0-47.843,21.462-47.843,47.843V353.24c-13.786,3.492-24.018,16.001-24.018,30.858v79.866h63.661v-48.037h16.4v96.072
		h191.757V183.945C383.901,131.078,340.89,88.067,288.024,88.067z M160.121,448.339h-32.413v-64.242
		c0-8.936,7.269-16.206,16.206-16.206c8.937,0,16.206,7.27,16.206,16.206L160.121,448.339L160.121,448.339z M368.277,496.376
		H207.769v-32.413h160.509v32.413H368.277z M368.277,448.339H207.769V247.8h160.509v200.539H368.277z M368.277,232.176H207.769
		v-32.413h160.509v32.413H368.277z M368.277,184.139H207.769v-0.194c0-44.253,36.002-80.255,80.255-80.255
		s80.255,36.002,80.255,80.255v0.194H368.277z"/>
	<polygon style="fill:#1D1D1B;" points="280.212,79.866 295.836,79.866 295.836,63.661 320.048,63.661 320.048,48.037 
		271.817,48.037 271.817,15.624 320.048,15.624 320.048,0 256.193,0 256.193,63.661 280.212,63.661 	"/>
	<path style="fill:#1D1D1B;" d="M368.083,0c-14.856,0-27.365,10.232-30.858,24.018h-49.202v15.624h49.202
		c3.492,13.786,16.001,24.018,30.858,24.018c17.552,0,31.831-14.279,31.831-31.83S385.635,0,368.083,0z M368.083,48.037
		c-8.936,0-16.206-7.27-16.206-16.206s7.27-16.206,16.206-16.206s16.207,7.269,16.207,16.206S377.019,48.037,368.083,48.037z"/>
</g>
<g>
</g>
<g>
</g>
<g>
</g>
<g>
</g>
<g>
</g>
<g>
</g>
<g>
</g>
<g>
</g>
<g>
</g>
<g>
</g>
<g>
</g>
<g>
</g>
<g>
</g>
<g>
</g>
<g>
</g>
</svg>
